<?xml version="1.0" encoding="UTF-8"?>
<svg xmlns="http://www.w3.org/2000/svg" xmlns:xlink="http://www.w3.org/1999/xlink" width="15pt" height="15pt" viewBox="0 0 15 15" version="1.1">
<g id="surface1">
<path style=" stroke:none;fill-rule:nonzero;fill:rgb(0%,0%,0%);fill-opacity:1;" d="M 11.160156 5.828125 L 12.402344 3.675781 C 12.410156 3.761719 12.371094 3.84375 12.300781 3.894531 C 12.230469 3.945312 12.140625 3.957031 12.058594 3.925781 L 10.800781 6.109375 C 9.835938 5.667969 8.753906 5.421875 7.589844 5.421875 C 6.425781 5.421875 5.34375 5.667969 4.382812 6.109375 L 3.121094 3.925781 C 3.023438 3.867188 2.976562 3.75 3.003906 3.640625 C 3.035156 3.53125 3.136719 3.453125 3.25 3.453125 C 3.363281 3.453125 3.460938 3.53125 3.492188 3.640625 C 3.523438 3.75 3.472656 3.867188 3.375 3.925781 L 3.835938 5.828125 C 1.695312 6.992188 0.238281 9.164062 0 11.707031 L 15 11.707031 C 14.761719 9.164062 13.304688 6.992188 11.160156 5.828125 Z M 4.054688 9.597656 C 4.054688 9.253906 4.335938 8.96875 4.683594 8.972656 C 5.03125 8.972656 5.3125 9.253906 5.3125 9.597656 C 5.3125 9.945312 5.03125 10.226562 4.683594 10.226562 Z M 10.941406 9.597656 C 11.113281 11.328125 9.855469 12.867188 8.128906 13.042969 C 6.398438 13.214844 4.859375 11.957031 4.683594 10.226562 C 4.4375 10.085938 4.316406 9.796875 4.390625 9.519531 C 4.464844 9.246094 4.714844 9.054688 5 9.054688 C 5.285156 9.054688 5.535156 9.246094 5.605469 9.519531 C 5.679688 9.796875 5.558594 10.085938 5.3125 10.226562 Z M 10.941406 9.597656 "/>
</g>
</svg>
