<?xml version="1.0" encoding="UTF-8"?>
<svg xmlns="http://www.w3.org/2000/svg" xmlns:xlink="http://www.w3.org/1999/xlink" width="15pt" height="15pt" viewBox="0 0 15 15" version="1.1">
<g id="surface1">
<path style=" stroke:none;fill-rule:nonzero;fill:rgb(0%,0%,0%);fill-opacity:1;" d="M 10.226562 4.007812 C 9.046875 4.007812 8.546875 4.574219 7.726562 4.574219 C 6.882812 4.574219 6.238281 4.015625 5.214844 4.015625 C 4.210938 4.015625 3.144531 4.625 2.464844 5.667969 C 1.511719 7.136719 1.675781 9.90625 3.21875 12.261719 C 3.769531 13.105469 4.507812 14.054688 5.472656 14.0625 L 5.492188 14.0625 C 6.332031 14.0625 6.582031 13.511719 7.738281 13.507812 L 7.753906 13.507812 C 8.894531 13.507812 9.121094 14.058594 9.960938 14.058594 L 9.976562 14.058594 C 10.945312 14.050781 11.71875 13 12.273438 12.160156 C 12.667969 11.554688 12.816406 11.253906 13.121094 10.566406 C 10.890625 9.71875 10.53125 6.554688 12.738281 5.34375 C 12.066406 4.5 11.117188 4.011719 10.226562 4.011719 Z M 10.226562 4.007812 "/>
<path style=" stroke:none;fill-rule:nonzero;fill:rgb(0%,0%,0%);fill-opacity:1;" d="M 9.96875 0.9375 C 9.265625 0.984375 8.445312 1.433594 7.964844 2.015625 C 7.527344 2.546875 7.167969 3.332031 7.308594 4.09375 L 7.367188 4.09375 C 8.117188 4.09375 8.882812 3.644531 9.328125 3.066406 C 9.761719 2.515625 10.085938 1.738281 9.96875 0.9375 Z M 9.96875 0.9375 "/>
</g>
</svg>
